<svg width="450" height="450" viewBox="108 11 449 449" fill="none" xmlns="http://www.w3.org/2000/svg">
<g clip-path="url(#clip0_5411_301)">
<path d="M332.5 460C456.488 460 557 359.488 557 235.5C557 111.512 456.488 11 332.5 11C208.512 11 108 111.512 108 235.5C108 359.488 208.512 460 332.5 460Z" fill="#F48120"/>
</g>
<path d="M527.744 235.463C527.744 128.093 440.371 40.7052 333.019 40.7052C225.667 40.7052 138.201 128.093 138.201 235.463C138.201 342.832 225.574 430.22 332.927 430.22C440.279 430.22 527.744 342.924 527.744 235.463ZM496.072 235.463C496.072 325.429 422.878 398.543 333.019 398.543C243.16 398.543 169.965 325.336 169.965 235.463C169.965 145.589 243.16 72.3821 333.019 72.3821C422.878 72.3821 496.072 145.589 496.072 235.463Z" fill="white"/>
<path d="M448.657 203.233L384.393 139.88C383.104 138.59 380.342 138.59 379.053 139.88L332.927 185.369L286.892 139.88C285.511 138.498 282.933 138.59 281.552 139.88L217.288 203.233C208.542 211.797 203.754 223.215 203.754 235.463C203.754 247.71 208.542 259.036 217.288 267.6L281.552 330.954C282.841 332.243 285.419 332.335 286.892 330.954L333.019 285.372L379.053 330.862C380.618 332.427 382.736 332.427 384.393 330.862L448.657 267.508C457.404 258.944 462.191 247.526 462.191 235.278C462.191 223.031 457.404 211.797 448.657 203.233ZM427.481 246.697L381.723 291.818L354.194 264.561L364.967 253.879C382.644 234.45 359.995 217.506 359.995 217.506C359.811 217.506 359.719 217.414 359.627 217.322L284.222 291.818L238.464 246.697C232.111 240.435 232.111 230.398 238.464 224.136L284.222 179.015L311.751 206.272L300.979 216.954C283.302 236.383 305.95 253.327 305.950 253.327C306.043 253.327 306.135 253.419 306.319 253.511L381.723 179.015L427.481 224.136C433.742 230.306 433.742 240.435 427.481 246.697Z" fill="white"/>
<defs>
<clipPath id="clip0_5411_301">
<rect width="449" height="449" fill="white" transform="translate(108 11)"/>
</clipPath>
</defs>
</svg>