<svg width="667" height="512" viewBox="0 0 667 512" fill="none" xmlns="http://www.w3.org/2000/svg">
<path d="M454.471 0H213.529C138.679 0 78 60.6786 78 135.529V376.471C78 451.321 138.679 512 213.529 512H454.471C529.321 512 590 451.321 590 376.471V135.529C590 60.6786 529.321 0 454.471 0Z" fill="#F48120"/>
<path d="M501.3 255.61C501.3 163.357 426.228 88.2721 333.99 88.2721C241.751 88.2721 166.6 163.357 166.6 255.61C166.6 347.864 241.672 422.949 333.91 422.949C426.149 422.949 501.3 347.943 501.3 255.61ZM474.088 255.61C474.088 332.91 411.198 395.732 333.99 395.732C256.781 395.732 193.891 332.831 193.891 255.61C193.891 178.39 256.781 115.489 333.99 115.489C411.198 115.489 474.088 178.39 474.088 255.61Z" fill="white"/>
<path d="M433.348 227.919L378.131 173.484C377.024 172.376 374.65 172.376 373.543 173.484L333.91 212.569L294.357 173.484C293.17 172.297 290.955 172.376 289.769 173.484L234.552 227.919C227.037 235.277 222.924 245.088 222.924 255.61C222.924 266.133 227.037 275.865 234.552 283.223L289.769 337.658C290.876 338.765 293.091 338.844 294.357 337.658L333.99 298.493L373.543 337.579C374.888 338.924 376.707 338.924 378.131 337.579L433.348 283.144C440.863 275.786 444.976 265.975 444.976 255.452C444.976 244.929 440.863 235.277 433.348 227.919ZM415.153 265.263L375.837 304.032L352.184 280.612L361.44 271.434C376.628 254.74 357.168 240.182 357.168 240.182C357.01 240.182 356.931 240.103 356.851 240.024L292.063 304.032L252.747 265.263C247.289 259.883 247.289 251.259 252.747 245.879L292.063 207.11L315.716 230.529L306.46 239.707C291.272 256.402 310.732 270.96 310.732 270.96C310.811 270.96 310.89 271.039 311.049 271.118L375.837 207.11L415.153 245.879C420.532 251.18 420.532 259.883 415.153 265.263Z" fill="white"/>
</svg>