<?xml version="1.0" encoding="UTF-8"?>
<svg id="Camada_2" data-name="Camada 2" xmlns="http://www.w3.org/2000/svg" viewBox="0 0 196.09 38.86">
  <defs>
    <style>
      .cls-1 {
        fill: #f48120;
      }
    </style>
  </defs>
  <g id="Camada_1-2" data-name="Camada 1">
    <g>
      <path class="cls-1" d="M35.7,19.43c0,8.97-7.3,16.27-16.27,16.27S3.16,28.4,3.16,19.43,10.46,3.16,19.43,3.16s16.27,7.3,16.27,16.27M38.86,19.43C38.86,8.72,30.14,0,19.43,0S0,8.72,0,19.43s8.72,19.43,19.43,19.43,19.43-8.72,19.43-19.43"/>
      <path class="cls-1" d="M28.88,20.41l-4.57,4.5-2.75-2.72,1.08-1.06c1.77-1.94-.49-3.63-.49-3.63-.01,0-.02-.01-.03-.02l-3.88,3.84-.24.24-3.4,3.35-4.57-4.5c-.63-.62-.63-1.63,0-2.25l4.57-4.5,2.75,2.72-1.08,1.06c-1.77,1.94.5,3.63.5,3.63.01,0,.02.01.03.02l7.52-7.43,4.57,4.5c.63.62.63,1.63,0,2.25M31,16.08l-6.41-6.32c-.13-.13-.4-.13-.53,0l-4.6,4.54-4.59-4.54c-.14-.13-.4-.13-.53,0l-6.42,6.32c-.87.86-1.35,2-1.35,3.21s.48,2.35,1.35,3.21l6.42,6.32c.13.13.39.14.53,0l4.6-4.54,4.59,4.54c.16.15.37.16.53,0l6.42-6.32c.87-.86,1.35-2,1.35-3.21s-.48-2.35-1.35-3.21"/>
      <path class="cls-1" d="M161.74,27.88c-4.16,0-6.75-3.26-6.75-8.51s2.52-8.44,6.75-8.44,6.7,3.15,6.7,8.44-2.57,8.51-6.7,8.51M161.74,6.35c-7.81,0-12.66,4.99-12.66,13.02s4.85,13.05,12.66,13.05,12.62-5,12.62-13.05-4.84-13.02-12.62-13.02"/>
      <path class="cls-1" d="M122.83,27.75h-13.96v-6.36h8.63c.9-.12,1.97-.49,1.97-1.61l.03-2.82h-10.63v-5.58h11.09c1.16-.09,1.85-.99,2.13-1.59.35-.76.97-3.19.97-3.19,0,0-17.7,0-17.73,0-1.3,0-2.36.93-2.36,2.08v21.43c0,1.14,1.06,2.08,2.36,2.08h15.33c1.22-.09,2.18-.99,2.18-2.07,0-.03,0-2.37,0-2.37"/>
      <path class="cls-1" d="M193.93,32.19c1.21-.09,2.13-.96,2.16-2.02v-2.4h-12.47V6.57h-5.92v25.62h16.23Z"/>
      <path class="cls-1" d="M128.24,31.22c3.44,1,5.61,1.2,8.01,1.2,4.77,0,10.45-1.27,10.45-7.33,0-3.75-1.83-5.56-7.52-7.46l-3.46-1.14c-2.27-.75-3.88-1.4-3.88-2.99s1.7-2.57,4.24-2.57c1.82,0,3.48.38,5,.78l.79.22c1.16.17,2.05-.33,2.61-1.48l.94-2.31-2.86-.85c-2.09-.62-4.27-.94-6.48-.94-6.39,0-10.2,2.67-10.2,7.15,0,3.7,1.81,5.48,7.44,7.35l3.46,1.17c1.84.63,3.96,1.54,3.96,3.07,0,2.79-3.38,2.79-4.49,2.79-1.95,0-3.83-.27-6.11-.89l-1.1-.3c-.18-.03-.38-.06-.57-.06-1.22,0-1.87.86-2.21,1.58l-.88,2.19,2.86.81h0Z"/>
      <path class="cls-1" d="M91.67,28.08l.91,1.98c.8,1.58,1.96,2.1,3.23,2.1h4.12s-2.97-6.04-3.06-6.23c-.82-1.58-2.31-3.82-3.42-4.26-.12-.05-.76-.3-.76-.3,0,0,.69-.29.83-.36,2.15-.85,4.64-3.17,4.64-6.53,0-4.82-3.64-7.87-10-7.87,0,0-9.26,0-9.31,0-1.16,0-2.34,1.28-2.34,2.27v23.28h5.92V11.35h5.73c2.42,0,4.04,1.43,4.04,3.56,0,2.4-1.66,3.56-4.9,3.56-1.03,0-1.53.2-1.91.61-.82.88-.9,2.54-.81,3.84,4.45.15,5.69,2.14,7.09,5.15"/>
      <path class="cls-1" d="M70.13,27.32s-2.81.58-4.68.58c-4.38,0-7-3.15-7-8.44v-.13c0-5.29,2.62-8.44,7-8.44,1.88,0,4.68.58,4.68.58.98.12,1.96-.31,2.48-1.41.27-.57.86-2.4.86-2.4l-2-.59c-1.9-.54-3.59-.75-6.03-.75-7.99,0-12.95,4.99-12.95,13.02v.13c0,8.03,4.96,13.02,12.95,13.02,2.43,0,4.12-.21,6.03-.75l2-.59s-.58-1.82-.86-2.4c-.52-1.1-1.5-1.53-2.48-1.41"/>
    </g>
  </g>
</svg>